<mxfile host="app.diagrams.net" modified="2024-05-15T21:58:19.328Z" agent="Mozilla/5.0 (X11; Ubuntu; Linux x86_64; rv:124.0) Gecko/20100101 Firefox/124.0" version="24.2.2" etag="52NYdhZ2WneNktSaFldB" type="github">
  <diagram name="Page-1" id="0_fRfEn4v0uClvnsWCn_">
    <mxGraphModel>
      <root>
        <mxCell id="0" />
        <mxCell id="1" parent="0" />
      </root>
    </mxGraphModel>
  </diagram>
</mxfile>
